# AST/ASF file generated using VICON BodyLanguage
# -----------------------------------------------
:version 1.10
:name VICON
:units
  mass 1.0
  length 0.45
  angle deg
:documentation
   .ast/.asf automatically generated from VICON data using
   VICON BodyBuilder and BodyLanguage model FoxedUp or BRILLIANT.MOD
:root
   order TX TY TZ RX RY RZ
   axis XYZ
   position 0 0 0  
   orientation 0 0 0 
:bonedata
  begin
     id 1 
     name lhipjoint
     direction 0.660183 -0.676772 0.325788 
     length 2.75133 
     axis 0 0 0  XYZ
  end
  begin
     id 2 
     name lfemur
     direction 0.34202 -0.939693 0  
     length 7.70317  
     axis 0 0 20  XYZ
    dof rx ry rz
    limits (-160.0 20.0)
           (-70.0 70.0)
           (-60.0 70.0)
  end
  begin
     id 3 
     name ltibia
     direction 0.342105 -0.939662 0   
     length 7.18701   
     axis 0 0 20   XYZ
    dof rx
    limits (-10.0 170.0)
  end
  begin
     id 4 
     name lfoot
     direction 0.14163 -0.389126 0.910232   
     length 2.41719   
     axis -90 7.62852e-016 20   XYZ
    dof rx rz
    limits (-45.0 90.0)
           (-70.0 20.0)
  end
  begin
     id 5 
     name ltoes
     direction 1.53533e-011 -4.21926e-011 1   
     length 1.18611   
     axis -90 7.62852e-016 20   XYZ
    dof rx
    limits (-90.0 20.0)
  end
  begin
     id 6 
     name rhipjoint
     direction -0.6658 -0.67229 0.323631   
     length 2.76968  
     axis 0 0 0  XYZ 
  end
  begin
     id 7 
     name rfemur
     direction -0.34202 -0.939693 0   
     length 7.92547   
     axis 0 0 -20   XYZ
    dof rx ry rz
    limits (-160.0 20.0)
           (-70.0 70.0)
           (-70.0 60.0)
  end
  begin
     id 8 
     name rtibia
     direction -0.342022 -0.939692 0   
     length 7.22641   
     axis 0 0 -20   XYZ
    dof rx
    limits (-10.0 170.0)
 end
 begin
     id 9 
     name rfoot
     direction -0.105675 -0.29034 0.951071   
     length 2.48149  
     axis -90 -7.62852e-016 -20   XYZ
    dof rx rz
    limits (-45.0 90.0)
           (-20.0 70.0)
  end
  begin
     id 10 
     name rtoes
     direction -1.5349e-011 -4.21859e-011 1   
     length 1.23343   
     axis -90 -7.62852e-016 -20   XYZ
    dof rx
    limits (-90.0 20.0)
  end
  begin
     id 11 
     name lowerback
     direction 0.0104173 0.993624 -0.112266   
     length 2.00527   
     axis 0 0 0   XYZ
    dof rx ry rz
    limits (-20.0 45.0)
           (-30.0 30.0)
           (-30.0 30.0)
  end
  begin
     id 12 
     name upperback
     direction 0.00733149 0.999856 -0.0152913   
     length 2.01385   
     axis 0 0 0   XYZ
    dof rx ry rz
    limits (-20.0 45.0)
           (-30.0 30.0)
           (-30.0 30.0)
  end
  begin
     id 13 
     name thorax
     direction 0.0026304 0.999318 0.036841   
     length 2.03734   
     axis 0 0 0   XYZ
    dof rx ry rz
    limits (-20.0 45.0)
           (-30.0 30.0)
           (-30.0 30.0)
  end
  begin
     id 14 
     name lowerneck
     direction 0.0293154 0.998757 0.0403082   
     length 1.65303   
     axis 0 0 0   XYZ
    dof rx ry rz
    limits (-20.0 45.0)
           (-30.0 30.0)
           (-30.0 30.0)
  end
  begin
     id 15 
     name upperneck
     direction -0.0376619 0.998184 -0.0470083   
     length 1.60926   
     axis 0 0 0   XYZ
    dof rx ry rz
    limits (-20.0 45.0)
           (-30.0 30.0)
           (-30.0 30.0)
  end
  begin
     id 16
     name head
     direction -0.0170133 0.999635 -0.0209778  
     length 1.73625  
     axis 0 0 0   XYZ
    dof rx ry rz
    limits (-20.0 45.0)
           (-30.0 30.0)
           (-30.0 30.0)
  end
  begin
     id 17 
     name lclavicle
     direction 0.919857 0.39181 -0.0186333  
     length 3.75313  
     axis 0 0 0   XYZ
    dof ry rz
    limits (-20.0 10.0)
           (0.0 20.0)
  end
  begin
     id 18 
     name lhumerus
     direction 1 -4.48988e-011 1.44029e-027   
     length 5.49313   
     axis 180 -30 -90   XYZ
    dof rx ry rz
    limits (-60.0 90.0)
           (-90.0 90.0)
           (-90.0 90.0)
  end
  begin
     id 19
     name lradius
     direction 1 -4.48924e-011 7.46281e-027   
     length 3.29037   
     axis 180 -30 -90   XYZ
    dof rx
    limits (-10.0 170.0)
  end
  begin
     id 20
     name lwrist
     direction 1 -4.48955e-011 2.19879e-026   
     length 1.64519   
     axis -1.34358e-014 90 90   XYZ
    dof ry
    limits (-180.0 0.0)
 end
  begin
     id 21 
     name lhand
     direction 1 -4.48978e-011 4.39747e-026   
     length 0.729656   
     axis -2.80598e-014 90 90   XYZ
    dof rx rz
    limits (-90.0 90.0)
           (-45.0 45.0)
  end
  begin
     id 22 
     name lfingers
     direction 1 -4.49071e-011 8.79411e-026   
     length 0.588268   
     axis -5.61193e-014 90 90   XYZ
    dof rx
    limits (0.0 90.0)
  end
  begin
     id 23
     name lthumb
     direction 0.707107 -6.34817e-011 0.707107   
     length 0.844638   
     axis -90 45 -9.86923e-015   XYZ
    dof rx rz
    limits (-45.0 45.0)
           (-45.0 45.0)
  end
  begin
     id 24 
     name rclavicle
     direction -0.919898 0.388279 0.0550233   
     length 3.7171  
     axis 0 0 0   XYZ 
    dof ry rz
    limits (-10.0 20.0)
           (-20.0 0.0)
  end
  begin
     id 25 
     name rhumerus
     direction -1 -4.48968e-011 9.98372e-028  
     length 5.23684   
     axis 180 30 90   XYZ
    dof rx ry rz
    limits (-90.0 60.0)
           (-90.0 90.0)
           (-90.0 90.0)
  end
  begin
     id 26 
     name rradius
     direction -1 -4.48956e-011 1.01023e-026   
     length 3.38251   
     axis 180 30 90   XYZ
    dof rx
    limits (-10.0 170.0)
  end
  begin
     id 27 
     name rwrist
     direction -1 -4.4892e-011 2.19886e-026   
     length 1.69126   
     axis -1.34358e-014 -90 -90   XYZ
    dof ry
    limits (-180.0 0.0)
  end
  begin
     id 28
     name rhand
     direction -1 -4.49024e-011 4.39727e-026   
     length 0.691454   
     axis -2.80598e-014 -90 -90   XYZ
    dof rx rz
    limits (-90.0 90.0)
           (-45.0 45.0)
  end
  begin
     id 29
     name rfingers
     direction -1 -4.49097e-011 8.79388e-026   
     length 0.557468   
     axis -5.61193e-014 -90 -90   XYZ
    dof rx
    limits (0.0 90.0)
  end
  begin
     id 30
     name rthumb
     direction -0.707107 -6.34938e-011 0.707107   
     length 0.800416   
     axis -90 -45 9.86923e-015   XYZ
    dof rx rz
    limits (-45.0 45.0)
           (-45.0 45.0)
  end
:hierarchy
  begin
    root lhipjoint rhipjoint lowerback
    lhipjoint lfemur
    lfemur ltibia
    ltibia lfoot
    lfoot ltoes
    rhipjoint rfemur
    rfemur rtibia
    rtibia rfoot
    rfoot rtoes
    lowerback upperback
    upperback thorax
    thorax lowerneck lclavicle rclavicle
    lowerneck upperneck
    upperneck head
    lclavicle lhumerus
    lhumerus lradius
    lradius lwrist
    lwrist lhand lthumb
    lhand lfingers
    rclavicle rhumerus
    rhumerus rradius
    rradius rwrist
    rwrist rhand rthumb
    rhand rfingers
  end

#!OML:ASF H:\BabyWalks\Project 1\Capture day 1\Session 1\baby.ASF
:FULLY-SPECIFIED
:DEGREES
131
root -31.5096 17.5332 -22.7398 -17.6231 79.3955 -26.0873
lowerback 14.6133 1.09902 -1.19612
upperback 8.32937 1.73036 1.67408
thorax 0.520746 0.957723 2.1841
lowerneck -1.03154 1.77403 2.60051
upperneck -8.89967 2.32003 -3.1766
head -2.57602 1.22148 -1.51158
rclavicle -1.54058e-014 -8.34896e-015
rhumerus -55.254 26.6198 -92.8268
rradius 52.9156
rwrist -3.90004
rhand -12.7711 -16.7376
rfingers 7.12502
rthumb 13.3139 -46.2923
lclavicle -1.54058e-014 -8.34896e-015
lhumerus -47.3356 -7.60748 82.6815
lradius 49.8544
lwrist -1.95531
lhand 2.44998 10.6215
lfingers 7.12502
lthumb 27.9349 38.5635
rfemur 9.82636 10.5996 25.5547
rtibia 2.22639e-014
rfoot -14.0677 -6.39744
rtoes -18.6058
lfemur -28.5227 -8.03547 -10.4768
ltibia 42.2728
lfoot -22.1932 -16.5852
ltoes 8.02987
132
root -31.4572 17.5203 -22.7442 -17.7737 79.4388 -26.2671
lowerback 14.6694 1.18831 -1.39206
upperback 8.32053 1.82191 1.57522
thorax 0.475802 0.999454 2.17688
lowerneck -1.02652 1.71488 2.64911
upperneck -9.00788 2.25557 -2.99598
head -2.6162 1.18375 -1.46234
rclavicle -5.26779e-015 1.78906e-014
rhumerus -55.4325 26.682 -93.011
rradius 52.9998
rwrist -4.00374
rhand -12.757 -16.7798
rfingers 7.12502
rthumb 13.3275 -46.3336
lclavicle -5.26779e-015 1.78906e-014
lhumerus -47.1907 -7.73731 82.4784
lradius 49.8908
lwrist -1.97022
lhand 2.33046 10.4573
lfingers 7.12502
lthumb 27.8206 38.4178
rfemur 9.99873 10.5538 25.5451
rtibia -2.22639e-014
rfoot -14.0567 -6.41399
rtoes -19.1058
lfemur -28.4989 -8.03397 -10.5324
ltibia 42.5211
lfoot -22.5573 -16.7149
ltoes 7.88603
133
root -31.4041 17.5077 -22.7486 -17.894 79.4692 -26.4135
lowerback 14.7336 1.28138 -1.60629
upperback 8.3135 1.91598 1.47703
thorax 0.427843 1.04201 2.17996
lowerneck -1.0225 1.66092 2.70166
upperneck -9.12183 2.19892 -2.81338
head -2.65789 1.14967 -1.4133
rclavicle -2.49475e-014 2.88238e-014
rhumerus -55.6109 26.7695 -93.2004
rradius 53.0898
rwrist -4.09056
rhand -12.7469 -16.824
rfingers 7.12502
rthumb 13.3372 -46.3772
lclavicle -2.49475e-014 2.88238e-014
lhumerus -47.0327 -7.88975 82.2826
lradius 49.9171
lwrist -1.97644
lhand 2.21404 10.1938
lfingers 7.12502
lthumb 27.7093 38.1722
rfemur 9.22038 10.5234 25.5319
rtibia 2.00181
rfoot -15.0446 -6.68901
rtoes -19.5621
lfemur -28.4571 -8.01606 -10.5937
ltibia 42.7565
lfoot -22.9043 -16.8337
ltoes 7.66946
134
root -31.3502 17.4954 -22.7529 -17.9541 79.4865 -26.4978
lowerback 14.8034 1.37877 -1.8431
upperback 8.30902 2.0127 1.37821
thorax 0.378783 1.08533 2.19441
lowerneck -1.01602 1.61268 2.75705
upperneck -9.24852 2.15093 -2.62904
head -2.70408 1.11977 -1.36452
rclavicle -2.64384e-014 1.98785e-015
rhumerus -55.7871 26.8795 -93.3947
rradius 53.182
rwrist -4.15103
rhand -12.7546 -16.8495
rfingers 7.12502
rthumb 13.3297 -46.4031
lclavicle -2.64384e-014 1.98785e-015
lhumerus -46.8577 -8.06547 82.0942
lradius 49.9265
lwrist -1.9763
lhand 2.11469 9.84368
lfingers 7.12502
lthumb 27.6143 37.8374
rfemur 8.46098 10.5082 25.5147
rtibia 3.96757
rfoot -15.9916 -6.93169
rtoes -20.0031
lfemur -28.3966 -7.97943 -10.6651
ltibia 42.9738
lfoot -23.2191 -16.9439
ltoes 7.42243
135
root -31.2959 17.4839 -22.7573 -17.9327 79.4883 -26.4968
lowerback 14.8815 1.48206 -2.10666
upperback 8.30773 2.11351 1.2782
thorax 0.327617 1.13007 2.22167
lowerneck -1.00352 1.56856 2.81626
upperneck -9.39169 2.10965 -2.44362
head -2.75678 1.09305 -1.31648
rclavicle 2.64384e-014 -1.5704e-014
rhumerus -55.9606 27.0054 -93.5888
rradius 53.2814
rwrist -4.19011
rhand -12.7758 -16.855
rfingers 7.12502
rthumb 13.3093 -46.41
lclavicle 2.64384e-014 -1.5704e-014
lhumerus -46.6669 -8.26972 81.9142
lradius 49.9266
lwrist -1.97903
lhand 2.05675 9.39017
lfingers 7.12502
lthumb 27.5589 37.3927
rfemur 7.83639 10.5118 25.4884
rtibia 5.65526
rfoot -16.7603 -7.10686
rtoes -20.462
lfemur -28.3128 -7.91926 -10.7495
ltibia 43.168
lfoot -23.4958 -17.0502
ltoes 7.16292
136
root -31.2411 17.4733 -22.7617 -17.825 79.4797 -26.4033
lowerback 14.9706 1.58824 -2.39456
upperback 8.31136 2.21477 1.17489
thorax 0.274992 1.1746 2.2586
lowerneck -0.988196 1.52955 2.87363
upperneck -9.55012 2.07681 -2.252
head -2.81509 1.07036 -1.26644
rclavicle -8.94531e-015 -2.38542e-015
rhumerus -56.1249 27.1433 -93.7815
rradius 53.3844
rwrist -4.21834
rhand -12.8082 -16.8459
rfingers 7.12502
rthumb 13.2781 -46.4029
lclavicle -8.94531e-015 -2.38542e-015
lhumerus -46.4573 -8.50904 81.7441
lradius 49.924
lwrist -1.99405
lhand 2.07472 8.93758
lfingers 7.12502
lthumb 27.576 36.9374
rfemur 7.23129 10.5308 25.447
rtibia 7.30496
rfoot -17.4626 -7.24681
rtoes -20.9659
lfemur -28.2032 -7.84676 -10.8485
ltibia 43.3342
lfoot -23.735 -17.1539
ltoes 6.96695
137
root -31.1859 17.4638 -22.7661 -17.625 79.4609 -26.2127
lowerback 15.0686 1.69837 -2.70779
upperback 8.31941 2.31754 1.06847
thorax 0.221472 1.21941 2.30581
lowerneck -0.964706 1.49408 2.93485
upperneck -9.7318 2.05021 -2.06147
head -2.88275 1.05063 -1.21794
rclavicle -4.07509e-014 -3.57812e-015
rhumerus -56.2808 27.2859 -93.9699
rradius 53.4919
rwrist -4.24195
rhand -12.8487 -16.8344
rfingers 7.12502
rthumb 13.239 -46.394
lclavicle -4.07509e-014 -3.57812e-015
lhumerus -46.231 -8.79383 81.5897
lradius 49.9287
lwrist -2.02201
lhand 2.17414 8.46696
lfingers 7.12502
lthumb 27.6711 36.4515
rfemur 6.61748 10.5637 25.3859
rtibia 8.97313
rfoot -18.1223 -7.34795
rtoes -21.485
lfemur -28.0663 -7.75378 -10.9638
ltibia 43.4693
lfoot -23.9571 -17.2599
ltoes 6.90263
